<?xml version="1.0" encoding="utf-8"?>
<!-- Generator: Adobe Illustrator 24.3.0, SVG Export Plug-In . SVG Version: 6.00 Build 0)  -->
<svg version="1.1" id="Camada_1" xmlns="http://www.w3.org/2000/svg" xmlns:xlink="http://www.w3.org/1999/xlink" x="0px" y="0px"
	 viewBox="0 0 1000 1000" style="enable-background:new 0 0 1000 1000;" xml:space="preserve">
<style type="text/css">
	.st0{fill:#CC0000;}
	.st1{fill:#FFFFFF;}
</style>
<rect class="st0" width="1000" height="1000"/>
<path class="st1" d="M214,419.5c0-42,34.3-76.3,76.3-76.3h57.9v-42.7h-58.3c-66-1.4-120.4,51.2-121.5,117.2
	c-1.1,66,51.2,120.4,117.2,121.5c1.4,0,2.8,0,4.2,0h112.3c6-0.4,10.9-5.3,11.3-11.3V306.5c-0.4-12,7.4-22.2,19.1-25.4
	c9.9-2.8,23.3,0,32.5,15.5L535,417.4c32.8,56.9,67.1,115.8,67.8,116.5c3.5,6,8.5,8.8,13.1,7.4c3.9-1.1,6.4-4.9,6.4-8.8v-226
	c-0.4-12,7.4-22.2,19.1-25.4c9.5-2.8,23.3,0,32.1,15.5c0.4,0.7,24.7,42.7,65,111.9c35.3,61.1,72,124.3,72.7,125.7
	c3.5,6,8.5,8.8,13.1,7.4c3.9-1.1,6.4-4.9,6.4-8.8V239.8h-43.1v174.1c0,0-72.4-124.6-75.6-129.9c-45.9-78-132.4-45.9-132.4,21.2
	v108.8c0,0-72.4-124.3-75.6-129.9c-45.9-78-132.4-45.9-132.8,21.2v178.7c0,6.7-4.9,12-11.7,12h-0.4h-68.9
	C248.2,495.8,214,461.9,214,419.5L214,419.5z"/>
<path class="st1" d="M847.1,239.8v292.7c0.4,12-7.8,22.2-19.1,25.4c-2.1,0.7-4.6,1.1-6.7,0.7c-8.5,0-18.4-4.2-25.8-16.2l-72.7-125.7
	l-64.6-111.9c-3.5-6-8.5-8.8-12.7-7.4c-3.9,1.1-6.4,4.9-6.4,8.8v226c0.4,12-7.4,22.2-19.1,25.4c-9.9,2.5-23.3,0-32.5-15.5
	l-67.8-116.9l-69.9-120.8c-3.5-6-8.5-8.8-13.1-7.4c-3.9,1.1-6.4,4.9-6.4,8.8v221c-0.4,15.5-13.1,28.2-28.6,28.6H289.9
	c-75.6,1.1-137.7-59-138.8-134.5c-1.1-75.6,59-137.7,134.5-138.8c1.4,0,2.8,0,4.2,0h58.3v-42.4h-58.3
	c-99.6-1.4-181.1,78-182.6,177.3s78,180.8,177.3,182.2c1.8,0,3.5,0,4.9,0h113.3c43.1,0,70.6-25.1,70.6-71.7V425.1
	c0,0,72.4,124.6,75.6,130.3c45.9,78,132.4,45.6,132.4-21.5V425.1c0,0,72.4,124.6,75.6,130.3c45.9,78,132.4,45.6,132.4-21.5V239.8
	H847.1z"/>
<path class="st1" d="M315,656.8c6,4.9,9.5,12.7,8.8,20.5c0,4.9-1.1,9.9-3.9,14.1c-2.5,4.2-6.4,7.4-10.6,9.5l0,0
	c12,2.8,20.1,14.1,19.4,26.5c0.4,6-1.8,12.4-4.9,17.3c-3.5,4.9-8.1,8.5-13.8,10.9c-6.4,2.5-13.1,3.9-19.8,3.9h-51.9V650.1h50.5
	C300.5,649.7,309.3,651.8,315,656.8z M262,668.4v24.7h24c3.9,0.4,7.8-0.7,10.9-3.2c4.9-5.3,4.9-13.4,0-18.4
	c-3.2-2.1-7.1-3.5-10.9-3.2L262,668.4z M262,711.9v28.6h27.5c4.2,0.4,8.5-1.1,12-3.9c5.3-6,5.3-15.2,0-21.2c-3.2-2.8-7.4-4.2-12-3.9
	L262,711.9z"/>
<path class="st1" d="M440.3,752.5c0.4,2.5,1.1,4.6,2.1,6.7h-24.4c-1.4-4.6-2.1-9.2-2.8-14.1l-1.8-14.1c0-3.9-1.8-7.8-4.6-10.6
	c-3.5-2.5-7.4-3.5-11.7-3.2h-24v42h-24V649.7h50.5c13.1,0,23,2.8,29.3,8.1c6.4,5.6,9.9,14.1,9.5,23c0,5.6-1.4,11.7-4.2,16.6
	c-2.8,4.9-7.4,8.5-12.4,10.6c4.2,1.4,8.1,3.9,10.6,7.4c2.5,3.9,4.2,8.5,4.6,13.4l1.8,13.4C439.3,746.5,440,750,440.3,752.5z
	 M413.8,683.6c0-10.2-6-15.2-18-15.2h-23v30.4h23C407.8,698.8,413.8,693.9,413.8,683.6z"/>
<path class="st1" d="M531.8,734.8h-41l-7.8,24.7h-25.8l36.4-109.8h35l37.1,109.8h-26.1L531.8,734.8z M510.6,667l-14.5,49.1h30.7
	L511.7,667H510.6z"/>
<path class="st1" d="M641.9,650.4c6,2.1,10.9,6,14.8,11.3c3.5,4.9,5.6,10.9,5.6,17.3h-24.4c-0.4-3.9-2.5-7.4-5.6-9.5
	c-3.9-2.5-8.5-3.5-13.4-3.2c-4.6-0.4-9.5,1.1-13.4,3.5c-3.2,2.1-4.9,5.6-4.9,9.2c0,2.8,0.7,5.3,2.8,7.4c2.1,1.8,4.6,3.2,7.4,3.5
	l27.9,6c18,3.9,27.2,14.1,27.2,30.7c0,6.7-1.8,13.1-5.3,18.4c-3.9,5.3-8.8,9.5-15.2,12c-7.1,3.2-15.2,4.6-23,4.2
	c-14.1,0-25.4-3.2-33.9-9.2c-8.1-5.6-13.1-15.5-12.7-25.4v-1.4h24v1.1c0,4.6,2.1,8.5,5.6,11.3c4.9,3.2,10.6,4.6,16.2,4.2
	c5.3,0.4,10.6-1.1,15.2-3.9c3.2-2.1,4.9-6,4.9-9.9c0-3.2-1.1-6.4-3.5-8.5c-3.5-2.5-7.4-4.2-11.7-4.9l-23.7-4.9
	c-17.7-3.5-26.1-13.8-26.1-30c-0.4-6.7,1.8-13.1,5.6-18.4c3.9-5.3,9.2-9.2,15.5-11.7c7.1-2.8,14.5-3.9,22.2-3.9
	C627.8,646.2,635.2,647.6,641.9,650.4z"/>
<path class="st1" d="M713.3,759.5h-24.7V649.7h24.7V759.5z"/>
<path class="st1" d="M765.9,739.4h51.6v20.1h-75.9V649.7h24.4V739.4z"/>
</svg>
